<svg width="139" height="24" viewBox="0 0 139 24" fill="none" xmlns="http://www.w3.org/2000/svg">
<path d="M37.9809 14.9894C37.9809 11.7789 35.3102 9.15211 32.0164 9.15211C30.2359 9.15211 28.6335 9.91096 27.5355 11.166C26.4376 9.91096 24.8351 9.15211 23.0547 9.15211C19.7608 9.15211 17.0901 11.7789 17.0901 14.9894V22.3444C17.0901 23.1616 17.7429 23.8037 18.5738 23.8037C19.375 23.8037 20.0279 23.1616 20.0279 22.3444V14.9894C20.0279 13.355 21.3929 12.0416 23.0547 12.0416C24.7164 12.0416 26.0518 13.355 26.0518 14.9894V22.3444C26.0518 23.1616 26.7343 23.8037 27.5355 23.8037C28.3367 23.8037 28.9896 23.1616 28.9896 22.3444V14.9894C28.9896 13.355 30.3546 12.0416 32.0164 12.0416C33.6781 12.0416 35.0432 13.355 35.0432 14.9894C35.0432 15.0478 35.0432 15.077 35.0432 15.1062C35.0432 15.1645 35.0432 15.1937 35.0432 15.2521V22.3444C35.0432 23.1616 35.696 23.8037 36.4972 23.8037C37.2984 23.8037 37.9809 23.1616 37.9809 22.3444V15.2521C37.9809 15.1937 37.9809 15.1645 37.9513 15.1062C37.9809 15.077 37.9809 15.0478 37.9809 14.9894Z" fill="#353538"/>
<path d="M66.7758 9.12292C65.9449 9.12292 65.2921 9.76503 65.2921 10.5531V17.8497C65.2921 19.5133 63.9271 20.8851 62.206 20.8851C60.5145 20.8851 59.1495 19.5133 59.1495 17.8497V10.5531C59.1495 9.76503 58.4966 9.12292 57.6658 9.12292C56.8645 9.12292 56.2117 9.76503 56.2117 10.5531V17.9081C56.2414 21.1478 58.9121 23.7746 62.206 23.7746C65.5295 23.7746 68.2002 21.1478 68.2299 17.9081V10.5531C68.2299 9.76503 67.577 9.12292 66.7758 9.12292Z" fill="#353538"/>
<path d="M77.3636 9.12292C73.2685 9.12292 69.9153 12.3918 69.9153 16.4487V22.3152C69.9153 23.1033 70.5681 23.7746 71.399 23.7746C72.2002 23.7746 72.8531 23.1033 72.8531 22.3152V16.4487C72.8531 13.9971 74.8709 12.0124 77.3636 12.0124C78.1945 12.0124 78.8473 11.3411 78.8473 10.5531C78.8473 9.76503 78.1945 9.12292 77.3636 9.12292Z" fill="#353538"/>
<path d="M47.0805 23.7454C51.2053 23.7454 54.5288 20.4473 54.5288 16.4196C54.5288 12.3626 51.2053 9.09375 47.0805 9.09375C42.9854 9.09375 39.6322 12.3626 39.6322 16.4196C39.6322 20.4473 42.9854 23.7454 47.0805 23.7454ZM47.0805 11.9832C49.5732 11.9832 51.591 13.9679 51.591 16.4196C51.591 18.842 49.5732 20.8559 47.0805 20.8559C44.5879 20.8559 42.57 18.842 42.57 16.4196C42.57 13.9679 44.5879 11.9832 47.0805 11.9832Z" fill="#353538"/>
<path d="M7.51845 9.39355C3.32833 9.39355 0 12.6672 0 16.7884C0 20.9096 3.32833 23.9786 7.51845 23.9786C9.21233 23.9786 10.6388 23.5694 11.9166 22.5172C11.9166 23.3648 12.7487 23.9786 13.343 23.9786C14.2048 23.9786 14.8289 23.3648 14.8289 22.5172V16.7884C14.8289 12.6672 11.7086 9.39355 7.51845 9.39355ZM7.51845 21.1142C5.02221 21.1142 2.91229 19.2436 2.91229 16.7884C2.91229 14.3332 5.02221 12.258 7.51845 12.258C10.0147 12.258 11.9166 14.3332 11.9166 16.7884C11.9166 19.2436 10.0147 21.1142 7.51845 21.1142Z" fill="#353538"/>
<path d="M133.734 8.01472C133.734 9.90425 133.047 11.6416 131.896 13.0114C131.767 13.1673 131.627 13.3195 131.486 13.4643C129.949 15.042 127.748 16.0332 125.31 16.0332C124.545 16.0332 123.807 15.9366 123.105 15.7547L119.109 17.6071L119.562 13.8689C119.024 13.3863 118.547 12.8406 118.157 12.243C117.35 11.0142 116.885 9.56643 116.885 8.01472C116.885 7.74744 116.897 7.48387 116.924 7.22401C117.244 4.10945 119.437 1.51831 122.418 0.482591C123.273 0.185612 124.194 0.014849 125.153 0C125.204 0 125.255 0 125.31 0C125.633 0 125.953 0.0185612 126.269 0.0519714C127.257 0.155914 128.189 0.426907 129.044 0.827829C129.075 0.842678 129.106 0.857527 129.137 0.876088C131.81 2.17537 133.652 4.78879 133.73 7.81797C133.734 7.88108 133.734 7.9479 133.734 8.01472Z" fill="#353538"/>
<path d="M81.838 23.5988C82.6269 23.5988 83.2697 22.9507 83.2697 22.126V1.44337C83.2697 0.648045 82.6269 0 81.838 0C81.02 0 80.3772 0.648045 80.3772 1.44337V22.126C80.3772 22.9507 81.02 23.5988 81.838 23.5988Z" fill="#353538"/>
<path d="M92.3727 8.7821C88.3116 8.7821 85.0393 12.0812 85.0393 16.1757C85.0393 20.2407 88.3116 23.5693 92.3727 23.5693C93.4537 23.5693 94.9438 23.5988 96.8721 22.3027C97.5441 21.8609 97.9239 21.095 97.5733 20.3586C97.2227 19.6516 96.317 19.2392 95.645 19.6811C94.2426 20.5942 93.0447 20.6531 92.3727 20.6531C90.4152 20.6531 88.7791 19.3865 88.1655 17.6191H98.2453C99.0633 17.6191 99.7061 16.971 99.7061 16.1757C99.7061 11.3743 95.9079 8.7821 92.3727 8.7821ZM92.3727 11.6983C94.1257 11.6983 95.9956 12.6409 96.6091 14.7029H88.1655C88.7791 12.9649 90.4152 11.6983 92.3727 11.6983Z" fill="#353538"/>
<path d="M108.779 8.7821C104.717 8.7821 101.445 12.0812 101.445 16.1757C101.445 20.2407 104.717 23.5693 108.779 23.5693C109.86 23.5693 111.35 23.5988 113.278 22.3027C113.95 21.8609 114.33 21.095 113.979 20.3586C113.629 19.6516 112.723 19.2392 112.051 19.6811C110.648 20.5942 109.451 20.6531 108.779 20.6531C106.821 20.6531 105.185 19.3865 104.571 17.6191H114.651C115.469 17.6191 116.112 16.971 116.112 16.1757C116.112 11.3743 112.314 8.7821 108.779 8.7821ZM108.779 11.6983C110.532 11.6983 112.401 12.6409 113.015 14.7029H104.571C105.185 12.9649 106.821 11.6983 108.779 11.6983Z" fill="#353538"/>
<path fill-rule="evenodd" clip-rule="evenodd" d="M127.166 17.7101C127.55 20.5803 129.986 22.7944 132.933 22.7944C133.442 22.7944 133.935 22.7288 134.405 22.6047C134.439 22.5956 134.476 22.599 134.508 22.6148L136.976 23.8358C137.08 23.8869 137.198 23.8034 137.185 23.689L136.911 21.282C136.906 21.2367 136.922 21.1917 136.955 21.1598C137.433 20.6942 137.836 20.1483 138.135 19.544C138.272 19.2718 138.388 18.9886 138.48 18.6919C138.655 18.1311 138.749 17.5349 138.749 16.9169C138.749 14.4052 137.189 12.2605 134.993 11.4194C134.632 12.3679 134.132 13.246 133.52 14.0282C133.37 14.2227 133.207 14.4126 133.044 14.5932C131.535 16.255 129.477 17.3952 127.166 17.7101Z" fill="white"/>
<path d="M127.59 4.14328C126.711 4.13826 125.876 4.55075 125.31 5.26917C124.748 4.54584 123.911 4.13218 123.031 4.14328C121.382 4.14328 120.045 5.57257 120.045 7.33569C120.045 10.3571 124.977 13.3072 125.177 13.4213C125.258 13.4789 125.363 13.4789 125.444 13.4213C125.644 13.3072 130.575 10.3999 130.575 7.33569C130.575 5.57257 129.239 4.14328 127.59 4.14328Z" fill="white"/>
</svg>
